<svg xmlns="http://www.w3.org/2000/svg" xmlns:xlink="http://www.w3.org/1999/xlink" width="1080" zoomAndPan="magnify" viewBox="0 0 810 809.999993" height="1080" preserveAspectRatio="xMidYMid meet" version="1.0"><path fill="#ffffff" d="M 404.207031 135.230469 C 401.34375 138.300781 397.433594 141.992188 394.390625 144.507812 C 393.683594 145.089844 391.472656 146.789062 389.480469 148.28125 C 385.167969 151.519531 384.339844 152.222656 383.257812 153.578125 C 380.855469 156.59375 379.707031 161.046875 378.792969 171.082031 C 378.667969 172.453125 378.542969 173.585938 378.515625 173.613281 C 378.503906 173.640625 377.867188 173.40625 377.121094 173.117188 C 373.566406 171.707031 369.597656 170.558594 366.210938 169.964844 C 363.527344 169.480469 359.476562 169.425781 357.527344 169.8125 C 353.15625 170.695312 350.324219 172.796875 348.5 176.476562 C 347.15625 179.1875 346.699219 181.773438 346.824219 185.921875 C 346.949219 190.523438 347.972656 194.839844 349.964844 199.207031 C 350.902344 201.28125 351.664062 203.578125 352.121094 205.789062 C 352.464844 207.394531 352.507812 207.890625 352.507812 210.351562 C 352.523438 213.476562 352.328125 214.804688 351.539062 217.433594 C 350.363281 221.34375 348.609375 224.582031 344.28125 230.898438 C 343.300781 232.324219 342.496094 233.539062 342.496094 233.597656 C 342.496094 233.734375 347.558594 233.539062 349.964844 233.304688 C 360.320312 232.308594 366.667969 229.226562 369.597656 223.804688 C 370.855469 221.457031 371.3125 219.535156 371.8125 214.5 C 372.210938 210.367188 372.472656 209.523438 373.871094 207.890625 C 375.515625 205.941406 377.105469 205.195312 378.988281 205.484375 C 380.355469 205.691406 382.125 206.882812 383.21875 208.320312 L 383.703125 208.941406 L 383.703125 314.261719 L 278.105469 314.261719 L 277.480469 313.78125 C 276.042969 312.6875 274.855469 310.917969 274.648438 309.546875 C 274.359375 307.667969 275.105469 306.078125 277.054688 304.433594 C 278.683594 303.035156 279.527344 302.773438 283.664062 302.371094 C 288.695312 301.875 290.617188 301.417969 292.96875 300.160156 C 298.390625 297.226562 301.472656 290.882812 302.46875 280.523438 C 302.703125 278.121094 302.898438 273.058594 302.757812 273.058594 C 302.703125 273.058594 301.484375 273.859375 300.0625 274.84375 C 293.742188 279.171875 290.507812 280.925781 286.59375 282.101562 C 283.96875 282.890625 282.640625 283.082031 279.515625 283.070312 C 277.054688 283.070312 276.554688 283.027344 274.953125 282.683594 C 272.738281 282.226562 270.445312 281.464844 268.371094 280.523438 C 264 278.535156 259.6875 277.511719 255.082031 277.386719 C 250.933594 277.261719 248.363281 277.71875 245.640625 279.058594 C 241.972656 280.871094 239.859375 283.734375 238.972656 288.089844 C 238.585938 290.039062 238.640625 294.089844 239.125 296.773438 C 239.71875 300.160156 240.867188 304.128906 242.277344 307.679688 C 242.570312 308.429688 242.804688 309.0625 242.777344 309.078125 C 242.75 309.105469 241.613281 309.230469 240.246094 309.355469 C 230.207031 310.265625 225.753906 311.414062 222.742188 313.820312 C 221.386719 314.898438 220.679688 315.730469 217.429688 320.058594 C 215.9375 322.0625 214.097656 324.425781 213.367188 325.3125 C 210.753906 328.449219 207.128906 332.238281 203.757812 335.40625 L 202.097656 336.941406 L 203.757812 338.472656 C 207.128906 341.640625 210.753906 345.429688 213.367188 348.566406 C 214.097656 349.453125 215.9375 351.816406 217.429688 353.824219 C 220.679688 358.152344 221.386719 358.980469 222.742188 360.058594 C 225.753906 362.464844 230.207031 363.613281 240.246094 364.523438 C 241.613281 364.648438 242.75 364.773438 242.777344 364.800781 C 242.804688 364.816406 242.570312 365.449219 242.277344 366.199219 C 240.867188 369.75 239.71875 373.71875 239.125 377.105469 C 238.640625 379.789062 238.585938 383.839844 238.972656 385.789062 C 239.859375 390.160156 241.960938 392.996094 245.640625 394.820312 C 248.347656 396.160156 250.933594 396.617188 255.082031 396.492188 C 259.6875 396.367188 264 395.34375 268.371094 393.355469 C 270.445312 392.414062 272.738281 391.652344 274.953125 391.195312 C 276.554688 390.851562 277.054688 390.808594 279.515625 390.808594 C 282.640625 390.796875 283.96875 390.988281 286.59375 391.777344 C 290.507812 392.953125 293.742188 394.710938 300.0625 399.035156 C 301.484375 400.019531 302.703125 400.820312 302.757812 400.820312 C 302.898438 400.820312 302.703125 395.761719 302.46875 393.355469 C 301.472656 382.996094 298.390625 376.652344 292.96875 373.71875 C 290.617188 372.460938 288.695312 372.003906 283.664062 371.507812 C 279.527344 371.105469 278.683594 370.84375 277.054688 369.445312 C 275.105469 367.800781 274.359375 366.210938 274.648438 364.332031 C 274.855469 362.960938 276.042969 361.191406 277.480469 360.101562 L 278.105469 359.617188 L 383.398438 359.617188 L 383.480469 415.988281 C 383.523438 447.003906 383.578125 488.375 383.617188 507.9375 L 383.660156 543.503906 L 382.996094 544.316406 C 381.0625 546.710938 378.421875 547.609375 376.332031 546.570312 C 375.210938 546.019531 374.574219 545.480469 373.609375 544.261719 C 372.351562 542.6875 372.113281 541.855469 371.742188 537.707031 C 371.175781 531.335938 370.054688 528.347656 367.179688 525.457031 C 363.042969 521.308594 356.007812 519.195312 345.082031 518.820312 L 342.34375 518.722656 L 345.152344 522.925781 C 346.699219 525.238281 348.347656 527.851562 348.816406 528.722656 C 351.027344 532.828125 352.136719 536.296875 352.464844 540.199219 C 352.824219 544.277344 351.859375 549.117188 349.839844 553.386719 C 347.585938 558.1875 346.339844 564.726562 346.785156 569.582031 C 347.808594 580.820312 355.742188 585.136719 369.308594 581.804688 C 371.339844 581.304688 374.699219 580.226562 376.898438 579.382812 C 377.769531 579.050781 378.488281 578.773438 378.515625 578.773438 C 378.53125 578.773438 378.585938 579.355469 378.640625 580.046875 C 379.234375 588.175781 380.382812 594.027344 381.90625 596.859375 C 383.175781 599.210938 384.28125 600.289062 389.441406 604.148438 C 393.476562 607.175781 395.234375 608.601562 397.929688 611.046875 C 399.574219 612.539062 404.152344 617.117188 405.589844 618.707031 C 405.949219 619.09375 406.28125 619.425781 406.335938 619.425781 C 406.378906 619.425781 407.898438 617.90625 409.710938 616.054688 C 414.8125 610.839844 417.34375 608.628906 423.316406 604.148438 C 428.472656 600.289062 429.582031 599.210938 430.851562 596.859375 C 432.375 594.027344 433.519531 588.175781 434.117188 580.046875 C 434.171875 579.355469 434.226562 578.773438 434.238281 578.773438 C 434.265625 578.773438 434.988281 579.050781 435.859375 579.382812 C 447.875 584.03125 456.875 584.058594 461.726562 579.480469 C 464.203125 577.144531 465.570312 573.949219 465.972656 569.582031 C 466.414062 564.726562 465.171875 558.1875 462.917969 553.386719 C 462.53125 552.585938 461.949219 551.09375 461.617188 550.097656 C 459.488281 543.710938 459.765625 537.945312 462.53125 531.582031 C 463.527344 529.289062 464.757812 527.1875 467.605469 522.925781 L 470.410156 518.722656 L 467.671875 518.820312 C 456.75 519.195312 449.710938 521.308594 445.578125 525.457031 C 442.703125 528.347656 441.582031 531.335938 441.015625 537.707031 C 440.640625 541.855469 440.40625 542.6875 439.148438 544.261719 C 438.179688 545.480469 437.542969 546.019531 436.425781 546.570312 C 434.335938 547.609375 431.695312 546.710938 429.761719 544.316406 L 429.097656 543.503906 L 429.136719 507.9375 C 429.179688 488.375 429.234375 447.003906 429.277344 415.988281 L 429.359375 359.617188 L 534.652344 359.617188 L 535.273438 360.101562 C 536.710938 361.191406 537.902344 362.960938 538.109375 364.332031 C 538.398438 366.210938 537.652344 367.800781 535.703125 369.445312 C 534.070312 370.84375 533.226562 371.105469 529.09375 371.507812 C 524.058594 372.003906 522.136719 372.460938 519.789062 373.71875 C 514.367188 376.652344 511.285156 382.996094 510.289062 393.355469 C 510.054688 395.761719 509.859375 400.820312 510 400.820312 C 510.054688 400.820312 511.269531 400.019531 512.695312 399.035156 C 519.011719 394.710938 522.25 392.953125 526.164062 391.777344 C 528.789062 390.988281 530.117188 390.796875 533.242188 390.808594 C 535.703125 390.808594 536.199219 390.851562 537.804688 391.195312 C 540.015625 391.652344 542.3125 392.414062 544.386719 393.355469 C 548.753906 395.34375 553.070312 396.367188 557.675781 396.492188 C 561.824219 396.617188 564.40625 396.160156 567.117188 394.820312 C 570.796875 392.996094 572.898438 390.160156 573.78125 385.789062 C 574.167969 383.839844 574.113281 379.789062 573.628906 377.105469 C 573.035156 373.71875 571.886719 369.75 570.476562 366.199219 C 570.1875 365.449219 569.953125 364.816406 569.980469 364.800781 C 570.007812 364.773438 571.140625 364.648438 572.511719 364.523438 C 582.550781 363.613281 587 362.464844 590.015625 360.058594 C 591.371094 358.980469 592.074219 358.152344 595.324219 353.824219 C 596.820312 351.816406 598.65625 349.453125 599.390625 348.566406 C 602.003906 345.429688 605.625 341.640625 609 338.472656 L 610.660156 336.941406 L 609 335.40625 C 605.625 332.238281 602.003906 328.449219 599.390625 325.3125 C 598.65625 324.425781 596.820312 322.0625 595.324219 320.058594 C 592.074219 315.730469 591.371094 314.898438 590.015625 313.820312 C 587 311.414062 582.550781 310.265625 572.511719 309.355469 C 571.140625 309.230469 570.007812 309.105469 569.980469 309.078125 C 569.953125 309.0625 570.1875 308.429688 570.476562 307.679688 C 571.886719 304.128906 573.035156 300.160156 573.628906 296.773438 C 574.113281 294.089844 574.167969 290.039062 573.78125 288.089844 C 572.898438 283.71875 570.796875 280.882812 567.117188 279.058594 C 564.40625 277.71875 561.824219 277.261719 557.675781 277.386719 C 553.070312 277.511719 548.753906 278.535156 544.386719 280.523438 C 542.3125 281.464844 540.015625 282.226562 537.804688 282.683594 C 536.199219 283.027344 535.703125 283.070312 533.242188 283.070312 C 530.117188 283.082031 528.789062 282.890625 526.164062 282.101562 C 522.25 280.925781 519.011719 279.171875 512.695312 274.84375 C 511.269531 273.859375 510.054688 273.058594 510 273.058594 C 509.859375 273.058594 510.054688 278.121094 510.289062 280.523438 C 511.285156 290.882812 514.367188 297.226562 519.789062 300.160156 C 522.136719 301.417969 524.058594 301.875 529.09375 302.371094 C 533.226562 302.773438 534.070312 303.035156 535.703125 304.433594 C 537.652344 306.078125 538.398438 307.667969 538.109375 309.546875 C 537.902344 310.917969 536.710938 312.6875 535.273438 313.78125 L 534.652344 314.261719 L 429.054688 314.261719 L 429.054688 208.902344 L 430.1875 207.726562 C 431.058594 206.800781 431.542969 206.425781 432.359375 206.023438 C 433.300781 205.570312 433.507812 205.511719 434.503906 205.511719 C 435.96875 205.511719 436.910156 205.957031 438.195312 207.226562 C 440.019531 209.066406 440.503906 210.214844 440.792969 213.53125 C 441.222656 218.164062 441.625 220.445312 442.398438 222.328125 C 445.121094 229.035156 452.0625 232.546875 464.4375 233.511719 C 465.460938 233.582031 467.230469 233.652344 468.351562 233.652344 L 470.398438 233.652344 L 467.730469 229.667969 C 466.261719 227.484375 464.660156 224.996094 464.175781 224.125 C 459.917969 216.519531 459.128906 209.757812 461.632812 202.277344 C 461.976562 201.269531 462.558594 199.773438 462.945312 198.960938 C 463.746094 197.273438 464.550781 194.949219 465.058594 192.863281 C 466.84375 185.464844 466.234375 179.007812 463.359375 174.75 C 462.210938 173.046875 460.070312 171.375 458.078125 170.601562 C 455.769531 169.714844 454.871094 169.578125 451.523438 169.5625 C 448.066406 169.5625 446.863281 169.714844 443.226562 170.628906 C 440.890625 171.207031 437.378906 172.34375 435.414062 173.144531 L 434.238281 173.613281 L 433.992188 170.902344 C 433.300781 163.105469 432.304688 158.265625 430.839844 155.527344 C 429.636719 153.289062 428.320312 151.988281 424.160156 148.890625 C 417.414062 143.871094 413.332031 140.261719 408.175781 134.773438 L 406.40625 132.894531 Z M 416.402344 144.589844 C 417.703125 145.683594 420.453125 147.855469 422.542969 149.417969 C 424.617188 150.980469 426.730469 152.625 427.214844 153.09375 C 430.394531 156.066406 431.597656 160.105469 432.636719 171.234375 C 432.898438 174.070312 432.996094 174.484375 433.492188 174.761719 C 434.03125 175.039062 434.640625 174.914062 437.144531 173.988281 C 443.199219 171.734375 447.984375 170.765625 452.269531 170.917969 C 455.035156 171.015625 456.433594 171.332031 458.367188 172.285156 C 461.605469 173.890625 463.59375 176.851562 464.398438 181.289062 C 464.6875 182.851562 464.714844 186.554688 464.464844 188.4375 C 464.007812 191.8125 463.070312 195.28125 461.933594 197.757812 C 459.75 202.527344 458.878906 206.136719 458.878906 210.421875 C 458.867188 212.980469 459.003906 214.222656 459.542969 216.367188 C 460.609375 220.652344 462.253906 224.054688 465.902344 229.515625 L 467.785156 232.308594 L 466.015625 232.214844 C 455.257812 231.632812 448.234375 229.003906 445.09375 224.402344 C 443.394531 221.871094 442.757812 219.589844 442.257812 214.15625 C 441.898438 210.257812 441.566406 209.136719 440.335938 207.546875 C 439.039062 205.859375 437.628906 204.753906 436.273438 204.339844 C 433.589844 203.507812 430.839844 204.613281 428.53125 207.433594 L 427.742188 208.390625 L 427.699219 261.070312 L 427.671875 313.75 L 425.074219 316.394531 C 423.648438 317.84375 419.167969 322.324219 415.132812 326.347656 L 407.761719 333.664062 L 407.761719 136.40625 L 410.914062 139.503906 C 412.640625 141.203125 415.117188 143.5 416.402344 144.589844 Z M 301.363281 276.199219 C 301.335938 276.488281 301.265625 277.496094 301.222656 278.453125 C 300.960938 283.941406 299.785156 289.195312 298.03125 292.691406 C 295.96875 296.800781 293.121094 299.164062 288.929688 300.230469 C 287.796875 300.519531 286.828125 300.644531 282.003906 301.140625 C 280.386719 301.308594 278.714844 301.695312 277.964844 302.082031 C 277.09375 302.523438 275.492188 303.851562 274.800781 304.695312 C 273.445312 306.339844 272.933594 308.125 273.292969 309.867188 C 273.625 311.46875 274.21875 312.492188 275.671875 313.960938 C 276.363281 314.664062 277.164062 315.328125 277.425781 315.4375 C 277.855469 315.617188 284.4375 315.644531 330.425781 315.644531 L 382.941406 315.660156 L 392.964844 325.601562 L 402.992188 335.542969 L 304.347656 335.558594 L 205.707031 335.558594 L 208.113281 333.097656 C 212.496094 328.644531 214.582031 326.195312 218.8125 320.554688 C 221.675781 316.753906 223.113281 315.148438 224.429688 314.304688 C 227.261719 312.480469 231.410156 311.554688 240.382812 310.738281 C 241.683594 310.625 242.902344 310.488281 243.109375 310.445312 C 243.605469 310.351562 244.1875 309.644531 244.1875 309.160156 C 244.1875 308.941406 243.8125 307.820312 243.371094 306.644531 C 241.101562 300.769531 240.136719 296.316406 240.136719 291.792969 C 240.121094 288.019531 240.59375 286.222656 242.210938 283.746094 C 243.894531 281.160156 246.855469 279.515625 250.824219 278.921875 C 252.925781 278.617188 256.796875 278.714844 259.1875 279.128906 C 262.160156 279.652344 264.804688 280.429688 266.933594 281.425781 C 271.203125 283.402344 274.882812 284.355469 278.726562 284.492188 C 281.367188 284.589844 283.152344 284.398438 285.875 283.707031 C 290.121094 282.625 294.308594 280.523438 299.632812 276.804688 C 300.503906 276.199219 301.265625 275.699219 301.335938 275.6875 C 301.390625 275.6875 301.402344 275.921875 301.363281 276.199219 Z M 604.644531 340.769531 C 600.273438 345.234375 598.105469 347.78125 594.109375 353.117188 C 589.753906 358.953125 588.382812 360.101562 584.332031 361.332031 C 582.105469 361.996094 577.890625 362.644531 572.371094 363.140625 C 571.085938 363.253906 569.855469 363.390625 569.648438 363.433594 C 569.164062 363.527344 568.570312 364.234375 568.570312 364.703125 C 568.570312 364.898438 568.941406 366.03125 569.386719 367.207031 C 572.953125 376.566406 573.660156 384.117188 571.40625 388.679688 C 570.339844 390.824219 569.109375 392.152344 567.132812 393.269531 C 564.683594 394.667969 561.835938 395.234375 557.785156 395.109375 C 553.472656 394.984375 549.265625 394.058594 545.824219 392.457031 C 541.550781 390.476562 537.875 389.523438 534.03125 389.386719 C 531.445312 389.289062 529.632812 389.484375 527.019531 390.132812 C 522.816406 391.183594 519.011719 393.0625 513.566406 396.769531 C 512.390625 397.570312 511.421875 398.195312 511.410156 398.164062 C 511.3125 398.054688 511.628906 393.601562 511.878906 391.625 C 512.417969 387.3125 513.332031 383.964844 514.726562 381.1875 C 516.789062 377.078125 519.636719 374.714844 523.824219 373.652344 C 524.960938 373.359375 525.898438 373.234375 530.753906 372.738281 C 532.328125 372.570312 534.085938 372.171875 534.816406 371.785156 C 535.660156 371.355469 537.277344 370.015625 537.957031 369.183594 C 539.3125 367.539062 539.824219 365.753906 539.464844 364.011719 C 539.132812 362.410156 538.539062 361.386719 537.085938 359.921875 C 536.394531 359.214844 535.59375 358.550781 535.328125 358.441406 C 534.902344 358.261719 528.320312 358.234375 482.332031 358.234375 L 429.816406 358.21875 L 419.789062 348.277344 L 409.765625 338.335938 L 508.410156 338.324219 L 607.050781 338.324219 Z M 404.996094 478.195312 L 404.996094 615.984375 L 402.671875 613.660156 C 398.828125 609.816406 395.386719 606.84375 390.753906 603.386719 C 387.253906 600.773438 386.882812 600.496094 385.816406 599.558594 C 384.046875 597.996094 382.886719 596.140625 382.070312 593.570312 C 381.324219 591.191406 380.839844 588.289062 380.246094 582.34375 C 379.816406 578.082031 379.746094 577.792969 379.027344 577.515625 C 378.515625 577.324219 378.269531 577.390625 375.488281 578.414062 C 366.972656 581.597656 359.976562 582.34375 355.382812 580.574219 C 350.171875 578.566406 347.613281 573.285156 348.167969 565.652344 C 348.457031 561.53125 349.328125 557.953125 350.820312 554.648438 C 354.566406 546.40625 354.914062 539.753906 352.011719 532.246094 C 350.933594 529.480469 349.371094 526.660156 346.6875 522.679688 C 345.125 520.355469 345.027344 520.164062 345.375 520.21875 C 345.582031 520.246094 346.5625 520.300781 347.542969 520.34375 C 352.964844 520.578125 358.261719 521.710938 361.746094 523.382812 C 366.5 525.664062 369.101562 529.066406 369.929688 534.113281 C 370.039062 534.832031 370.234375 536.519531 370.359375 537.847656 C 370.59375 540.597656 370.746094 541.511719 371.132812 542.753906 C 371.601562 544.261719 373.621094 546.667969 375.183594 547.59375 C 376.070312 548.105469 377.8125 548.523438 378.65625 548.410156 C 379.679688 548.285156 380.867188 547.84375 381.753906 547.289062 C 382.746094 546.65625 384.421875 544.941406 384.78125 544.179688 L 385.070312 543.585938 L 384.945312 459.03125 C 384.878906 412.53125 384.820312 371.273438 384.808594 367.34375 L 384.808594 360.210938 L 394.832031 350.308594 C 400.335938 344.847656 404.886719 340.394531 404.925781 340.394531 C 404.96875 340.394531 404.996094 402.410156 404.996094 478.195312 Z M 404.996094 478.195312 " fill-opacity="1" fill-rule="nonzero"/></svg>