<svg xmlns="http://www.w3.org/2000/svg" xmlns:xlink="http://www.w3.org/1999/xlink" width="1080" zoomAndPan="magnify" viewBox="0 0 810 809.999993" height="1080" preserveAspectRatio="xMidYMid meet" version="1.2"><g id="ea997a4911"><path style=" stroke:none;fill-rule:nonzero;fill:#000000;fill-opacity:1;" d="M 473.46875 180.5625 C 471.699219 180.984375 469.292969 182.796875 468.535156 184.316406 C 467.734375 185.792969 467.183594 190.097656 466.382812 200.8125 C 466.046875 205.578125 465.664062 210.007812 465.539062 210.726562 C 465.453125 211.402344 465.160156 217.6875 464.90625 224.648438 C 464.398438 238.695312 463.851562 242.703125 462.078125 245.023438 C 459.96875 247.808594 458.957031 247.976562 445.710938 248.105469 C 439.214844 248.1875 431.832031 248.359375 429.257812 248.570312 C 426.726562 248.738281 420.273438 249.203125 414.914062 249.539062 C 404.113281 250.257812 397.152344 251.101562 396.519531 251.734375 C 396.265625 251.984375 395.71875 255.570312 395.296875 259.75 C 394.832031 263.925781 394.285156 268.566406 394.074219 270.042969 C 393.820312 271.519531 393.609375 274.261719 393.609375 276.160156 C 393.609375 279.28125 393.695312 279.660156 394.875 281.265625 C 396.351562 283.246094 398.207031 284.046875 401.414062 284.089844 C 403.859375 284.089844 424.53125 282.742188 426.09375 282.445312 C 426.683594 282.359375 431.621094 282.066406 437.0625 281.8125 C 442.503906 281.558594 449.675781 281.179688 452.96875 280.925781 C 459.84375 280.460938 460.855469 280.589844 461.445312 282.148438 C 463.429688 287.464844 464.019531 297.042969 462.628906 301.21875 C 460.730469 306.871094 459.71875 308.09375 446.132812 320.878906 C 442.632812 324.125 437.90625 328.261719 435.585938 330.074219 C 433.265625 331.890625 429.933594 334.460938 428.203125 335.855469 C 426.472656 337.246094 422.632812 340.199219 419.679688 342.476562 C 416.769531 344.714844 412.128906 348.300781 409.34375 350.410156 C 402.933594 355.34375 402.804688 355.429688 401.539062 354.417969 L 400.570312 353.617188 L 401.710938 349.226562 C 407.445312 327.671875 408.078125 324.757812 408.121094 320.203125 C 408.164062 315.4375 407.996094 314.804688 405.507812 309.824219 C 403.058594 304.890625 400.992188 304.171875 394.15625 305.816406 C 389.726562 306.871094 386.902344 308.347656 384.792969 310.753906 C 382.765625 313.074219 381.882812 314.929688 380.320312 320.078125 C 377.957031 327.796875 377.453125 329.359375 376.3125 332.648438 C 375.636719 334.503906 373.867188 339.820312 372.304688 344.460938 C 370.785156 349.101562 369.265625 353.152344 368.972656 353.445312 C 368.507812 353.910156 368.253906 353.910156 367.496094 353.488281 C 367.03125 353.152344 366.523438 352.6875 366.441406 352.390625 C 366.3125 352.097656 364.710938 349.609375 362.898438 346.90625 C 356.863281 337.878906 356.570312 337.164062 355.640625 330.242188 C 354.628906 322.523438 353.953125 305.859375 353.953125 286.875 C 353.953125 270.125 353.574219 266.75 351.421875 262.195312 C 347.246094 253.460938 338.46875 253.671875 331.550781 262.660156 C 327.921875 267.382812 327.710938 268.1875 327.332031 279.070312 C 327.164062 284.386719 326.785156 292.484375 326.574219 297 C 326.320312 301.515625 326.023438 308.347656 325.898438 312.1875 C 325.6875 318.8125 324.421875 327.882812 323.535156 329.570312 C 322.480469 331.507812 320.328125 329.652344 318.304688 325.054688 C 317.207031 322.566406 316.871094 321.847656 313.453125 314.507812 C 312.441406 312.398438 310.542969 308.179688 309.148438 305.058594 C 307.757812 301.9375 305.773438 297.589844 304.761719 295.398438 C 303.75 293.246094 302.90625 291.390625 302.90625 291.304688 C 302.90625 291.21875 302.273438 289.742188 301.472656 288.054688 C 300.710938 286.367188 299.152344 282.992188 298.011719 280.546875 C 294.847656 273.628906 292.273438 271.011719 287.382812 270 C 282.824219 268.988281 275.90625 271.011719 273.628906 273.964844 C 269.242188 279.703125 271.265625 296.242188 278.226562 311.765625 C 280.421875 316.703125 290.164062 336.402344 292.738281 341.171875 C 295.058594 345.429688 295.144531 346.78125 293.035156 346.78125 C 291.9375 346.78125 283.964844 339.398438 281.09375 335.769531 C 278.648438 332.648438 273.164062 325.179688 270.632812 321.511719 C 269.492188 319.824219 268.3125 318.21875 268.101562 317.96875 C 267.847656 317.671875 267.003906 316.492188 266.203125 315.351562 C 258.144531 303.414062 254.515625 300.207031 249.117188 300.25 C 244.433594 300.289062 239.414062 303.414062 237.347656 307.632812 C 235.320312 311.640625 236.082031 318.136719 239.117188 323.15625 C 241.859375 327.628906 244.898438 331.679688 257.34375 347.203125 C 261.648438 352.601562 265.613281 357.625 266.203125 358.382812 C 266.792969 359.140625 270.125 363.320312 273.585938 367.621094 C 277.085938 371.96875 280.082031 375.933594 280.292969 376.523438 C 280.882812 378 280.167969 379.8125 278.859375 380.152344 C 277.257812 380.617188 255.234375 380.574219 249.960938 380.109375 C 247.429688 379.898438 242.492188 379.433594 238.992188 379.054688 C 227.855469 377.914062 222.582031 377.578125 220.640625 377.832031 C 218.023438 378.210938 214.988281 379.8125 213.765625 381.460938 C 212.539062 383.105469 210.9375 388.421875 210.894531 391.121094 C 210.8125 395.210938 209.757812 396.097656 207.097656 394.453125 C 206.296875 393.945312 202.921875 391.921875 199.546875 389.9375 C 196.171875 388 192.882812 386.015625 192.164062 385.550781 C 190.097656 384.203125 175.796875 375.636719 168.75 371.546875 C 165.164062 369.476562 161.535156 367.328125 160.734375 366.777344 C 159.933594 366.230469 159.089844 365.765625 158.921875 365.765625 C 158.710938 365.765625 157.992188 365.34375 157.273438 364.878906 C 151.15625 360.492188 142.507812 359.648438 136.308594 362.769531 C 132.722656 364.585938 130.359375 368.171875 130.359375 371.714844 C 130.359375 374.792969 132.765625 378.464844 136.265625 380.785156 C 137.066406 381.289062 139.09375 382.683594 140.695312 383.863281 C 142.339844 385.046875 145 386.902344 146.601562 388.039062 C 148.246094 389.179688 151.199219 391.246094 153.265625 392.679688 C 155.292969 394.117188 158.582031 396.476562 160.648438 397.914062 C 169.972656 404.492188 180.226562 411.875 182.125 413.394531 C 182.839844 414.027344 184.570312 415.335938 185.960938 416.390625 C 188.578125 418.375 191.234375 421.539062 192.25 423.898438 C 192.796875 425.207031 192.753906 425.503906 191.953125 427.148438 C 190.8125 429.554688 187.566406 432.464844 184.234375 434.109375 C 181.871094 435.25 180.605469 435.542969 174.613281 436.21875 C 170.816406 436.640625 161.242188 437.1875 153.351562 437.441406 C 145.460938 437.695312 136.179688 438.117188 132.679688 438.328125 C 129.21875 438.582031 121.710938 438.960938 116.015625 439.171875 C 110.320312 439.425781 103.992188 439.804688 101.882812 440.015625 C 99.816406 440.226562 96.019531 440.523438 93.445312 440.648438 C 90.914062 440.816406 87.875 441.238281 86.695312 441.578125 C 83.363281 442.632812 79.226562 444.867188 77.792969 446.429688 C 74.585938 449.929688 72.941406 456.976562 74.417969 460.855469 C 75.8125 464.527344 79.820312 467.351562 84.542969 468.027344 C 85.683594 468.195312 104.710938 468.40625 126.859375 468.492188 C 149.007812 468.578125 167.230469 468.703125 167.316406 468.828125 C 167.441406 468.957031 166.976562 469.421875 166.261719 469.925781 C 165.460938 470.476562 163.644531 471.066406 161.28125 471.402344 C 159.257812 471.742188 155.585938 472.414062 153.140625 472.878906 C 150.695312 473.386719 145.671875 474.230469 141.960938 474.820312 C 138.25 475.410156 133.398438 476.171875 131.203125 476.507812 C 126.140625 477.351562 117.492188 478.703125 112.050781 479.503906 C 109.773438 479.839844 107.746094 480.21875 107.535156 480.347656 C 107.324219 480.472656 104.835938 480.9375 101.96875 481.359375 C 99.140625 481.824219 94.753906 482.582031 92.179688 483.046875 C 89.648438 483.511719 84.039062 484.480469 79.734375 485.15625 C 70.960938 486.589844 66.234375 487.773438 64.210938 489.039062 C 62.015625 490.386719 60.371094 493.171875 59.695312 496.800781 C 58.132812 504.898438 59.863281 511.523438 64.25 514.222656 C 67.035156 515.910156 74.25 516.460938 97.664062 516.796875 C 109.519531 516.964844 119.222656 517.09375 119.304688 517.132812 C 120.066406 517.683594 116.3125 519.328125 112.007812 520.339844 C 103.824219 522.238281 94.542969 525.910156 90.449219 528.863281 C 87.539062 530.972656 86.398438 533.25 86.148438 537.257812 C 85.9375 540.71875 87.285156 546.875 88.679688 548.984375 C 90.789062 552.234375 95.089844 554.34375 99.5625 554.34375 C 103.527344 554.34375 113.148438 552.78125 124.242188 550.292969 C 125.886719 549.957031 128.546875 549.40625 130.148438 549.070312 C 134.832031 548.183594 140.316406 546.917969 145.335938 545.570312 C 150.144531 544.21875 152.929688 543.839844 164.320312 542.742188 C 168.03125 542.40625 171.367188 541.984375 171.660156 541.855469 C 172 541.773438 174.277344 541.476562 176.722656 541.222656 C 179.210938 541.011719 184.445312 540.253906 188.367188 539.535156 C 192.332031 538.820312 197.058594 537.976562 198.914062 537.679688 C 200.769531 537.382812 203.890625 536.710938 205.875 536.246094 C 207.859375 535.738281 211.191406 534.980469 213.257812 534.558594 C 217.351562 533.671875 234.519531 529.285156 236.25 528.652344 C 236.839844 528.441406 238.738281 527.851562 240.46875 527.34375 C 242.199219 526.835938 245.53125 525.78125 247.851562 525.023438 C 259.875 521.058594 263.164062 520.425781 267.089844 521.226562 C 269.746094 521.734375 272.109375 523.25 272.109375 524.390625 C 272.109375 524.855469 271.433594 526.414062 270.632812 527.890625 C 269.070312 530.761719 268.820312 532.40625 269.789062 534.09375 C 270.96875 536.117188 270.464844 537.765625 267.300781 542.488281 C 266.457031 543.710938 265.78125 544.894531 265.78125 545.105469 C 265.78125 545.273438 265.105469 546.917969 264.261719 548.734375 C 263.417969 550.546875 262.40625 552.78125 261.984375 553.710938 C 260.972656 555.988281 259.285156 559.703125 257.257812 564.046875 C 256.332031 566.03125 255.445312 568.011719 255.234375 568.476562 C 254.898438 569.277344 251.3125 577.210938 249.117188 581.976562 C 245.109375 590.75 244.011719 595.644531 244.433594 602.226562 C 244.773438 608.089844 247.007812 613.53125 251.3125 619.1875 C 254.09375 622.855469 256.375 624.753906 258.355469 625.09375 C 261.898438 625.640625 262.996094 624.710938 270.96875 614.628906 C 271.601562 613.828125 273.121094 611.804688 274.34375 610.15625 C 275.570312 608.554688 277.59375 605.8125 278.859375 604.082031 C 282.109375 599.78125 286.832031 592.480469 288.351562 589.570312 C 288.6875 588.851562 289.742188 586.953125 290.671875 585.351562 C 291.601562 583.707031 297.042969 573.074219 302.738281 561.726562 C 314.632812 538.015625 315.097656 537.132812 316.660156 534.894531 C 317.839844 533.125 318.894531 532.828125 319.949219 533.925781 C 321.511719 535.445312 320.246094 543.753906 317.039062 553.5 C 315.816406 557.339844 314.464844 561.601562 314.085938 562.992188 C 310.964844 574.636719 311.175781 573.285156 311.175781 582.820312 C 311.175781 592.355469 311.511719 594.71875 313.75 599.1875 C 316.40625 604.546875 322.945312 608.511719 326.699219 607.078125 C 330.328125 605.726562 331.847656 602.058594 335.179688 586.617188 C 335.476562 585.226562 336.148438 582.484375 336.65625 580.5 C 337.164062 578.515625 337.921875 575.394531 338.34375 573.539062 C 339.273438 569.488281 342.476562 559.703125 343.914062 556.453125 C 344.503906 555.1875 345.21875 553.5 345.515625 552.742188 C 345.8125 551.980469 346.402344 551.179688 346.824219 550.925781 C 347.5 550.589844 347.75 550.757812 348.46875 551.898438 C 349.609375 553.753906 351.421875 559.363281 353.574219 567.632812 C 354.542969 571.34375 356.0625 577.125 356.949219 580.5 C 357.875 583.875 358.890625 587.839844 359.269531 589.359375 C 359.648438 590.878906 360.40625 593.789062 361 595.898438 C 362.304688 600.664062 363.570312 605.390625 365.34375 612.140625 C 367.117188 619.015625 367.875 621.296875 369.097656 623.277344 C 371.671875 627.414062 376.859375 630.15625 381.332031 629.734375 C 384.582031 629.4375 387.367188 628.128906 388.800781 626.230469 C 390.613281 623.910156 390.613281 620.621094 388.96875 610.875 C 388.25 606.570312 387.40625 601.46875 387.070312 599.484375 C 386.734375 597.5 386.101562 593.621094 385.59375 590.835938 C 385.085938 588.050781 384.539062 584.550781 384.285156 583.03125 C 384.074219 581.511719 383.609375 578.6875 383.273438 576.703125 C 380.828125 562.527344 379.476562 546.960938 380.53125 545.695312 C 380.828125 545.359375 381.164062 545.0625 381.332031 545.0625 C 381.796875 545.0625 389.898438 552.148438 391.625 554.046875 C 395.042969 557.804688 404.703125 569.40625 411.75 578.179688 C 415 582.230469 418.246094 586.238281 418.710938 586.617188 C 418.964844 586.828125 420.566406 588.726562 422.296875 590.835938 C 424.027344 592.902344 426.769531 595.984375 428.414062 597.628906 C 431.03125 600.242188 431.703125 600.707031 434.109375 601.382812 C 437.738281 602.394531 442.421875 602.691406 444.488281 602.015625 C 446.765625 601.296875 448.367188 599.652344 449.042969 597.332031 C 449.59375 595.601562 449.550781 594.96875 448.917969 592.015625 C 448.496094 590.203125 447.945312 588.304688 447.695312 587.796875 C 447.398438 587.292969 447.1875 586.574219 447.1875 586.195312 C 447.1875 585.816406 446.765625 584.507812 446.21875 583.328125 C 445.667969 582.101562 444.742188 580.078125 444.191406 578.8125 C 442.503906 574.972656 434.109375 560.839844 427.484375 550.632812 C 426.347656 548.902344 426.09375 548.183594 426.390625 547.382812 C 426.769531 546.242188 432.71875 539.914062 434.066406 539.15625 C 435.289062 538.523438 434.953125 538.3125 445.921875 546.160156 C 459.125 555.609375 463.132812 557.296875 469.800781 556.03125 C 475.328125 554.976562 476.84375 552.78125 477.519531 544.851562 C 478.070312 538.523438 477.773438 535.867188 476.253906 532.574219 C 475.03125 529.960938 474.398438 529.285156 464.695312 520.171875 C 459.085938 514.898438 439.890625 496.460938 437.398438 493.890625 C 436.304688 492.792969 434.785156 490.976562 434.023438 489.882812 C 431.535156 486.296875 432.589844 483.214844 437.105469 480.726562 L 439.382812 479.460938 L 447.777344 479.335938 C 452.375 479.25 456.59375 479.292969 457.1875 479.460938 C 458.492188 479.757812 458.875 480.726562 459.632812 486 C 460.179688 489.671875 460.433594 490.597656 461.320312 491.484375 L 462.375 492.539062 L 473.890625 492.75 C 480.179688 492.875 486.210938 492.835938 487.265625 492.664062 C 490.132812 492.160156 491.78125 490.21875 492.160156 486.886719 C 492.328125 485.453125 492.664062 484.144531 492.917969 483.976562 C 493.171875 483.804688 509.710938 483.59375 529.664062 483.46875 L 565.945312 483.257812 L 568.265625 482.117188 C 575.269531 478.742188 580.203125 479.671875 590.203125 486.210938 C 595.140625 489.417969 599.738281 491.863281 603.070312 493.046875 C 606.570312 494.269531 606.824219 494.3125 614.460938 495.070312 C 623.53125 495.957031 625.683594 497.09375 628.339844 502.410156 C 629.523438 504.730469 630.957031 505.492188 637.328125 507.347656 C 639.308594 507.894531 642.007812 508.738281 643.316406 509.160156 C 644.625 509.582031 648.253906 510.722656 651.375 511.691406 C 654.496094 512.703125 657.828125 513.71875 658.757812 514.054688 C 659.6875 514.351562 662.257812 515.109375 664.453125 515.742188 C 666.648438 516.375 670.273438 517.515625 672.46875 518.273438 C 674.664062 519.03125 678.207031 520.171875 680.273438 520.804688 C 682.382812 521.4375 684.535156 522.113281 685.125 522.28125 C 685.714844 522.492188 688.078125 523.167969 690.398438 523.757812 C 707.820312 528.398438 709.382812 529.117188 715.5 535.402344 L 719.929688 539.957031 L 724.148438 541.476562 C 733.808594 544.9375 738.238281 547.890625 741.953125 553.414062 C 743.851562 556.242188 744.652344 557.042969 746.210938 557.71875 C 748.574219 558.773438 749.335938 558.773438 750.261719 557.761719 C 751.234375 556.707031 751.867188 553.796875 751.527344 552.359375 C 751.359375 551.726562 749.417969 549.15625 747.183594 546.582031 C 741.148438 539.578125 737.3125 536.203125 733.597656 534.558594 C 732.332031 534.007812 730.179688 532.996094 728.789062 532.363281 C 727.398438 531.730469 725.203125 530.253906 723.9375 529.03125 C 720.308594 525.613281 718.453125 524.222656 715.289062 522.449219 C 712.589844 520.929688 704.40625 517.683594 701.367188 516.964844 C 700.691406 516.796875 695.585938 514.984375 690.101562 512.914062 C 680.527344 509.371094 672.34375 507.007812 660.445312 504.394531 C 645.847656 501.144531 639.6875 498.320312 632.898438 491.652344 C 630.15625 488.910156 629.394531 488.445312 626.570312 487.519531 C 624.207031 486.71875 621.71875 486.296875 617.414062 486 C 610.707031 485.535156 609.0625 485.113281 604.082031 482.625 C 595.265625 478.195312 590.792969 474.695312 589.824219 471.445312 C 589.570312 470.515625 589.023438 468.703125 588.640625 467.4375 C 587.417969 463.175781 585.941406 459.632812 584.804688 458.453125 C 582.355469 455.835938 578.222656 454.570312 569.320312 453.683594 C 566.070312 453.390625 559.996094 452.757812 555.820312 452.292969 C 551.644531 451.828125 545.398438 451.152344 541.898438 450.816406 C 538.4375 450.4375 533.882812 449.84375 531.773438 449.507812 C 527.640625 448.875 523.460938 448.328125 515.785156 447.398438 C 513 447.0625 509.75 446.597656 508.613281 446.386719 C 507.429688 446.175781 505.238281 445.878906 503.71875 445.710938 C 496.757812 445.078125 493.929688 443.8125 492.242188 440.734375 C 490.765625 437.992188 491.695312 434.152344 494.523438 431.28125 C 496.714844 429.046875 500.554688 427.65625 517.894531 422.886719 C 519.117188 422.550781 521.859375 421.578125 524.011719 420.695312 C 526.203125 419.765625 529.875 418.332031 532.195312 417.445312 C 534.515625 416.601562 537.933594 415.25 539.789062 414.492188 C 561.21875 405.84375 569.953125 402.214844 574.804688 399.9375 C 576.195312 399.304688 577.800781 398.628906 578.390625 398.460938 C 578.980469 398.292969 581.046875 397.40625 582.945312 396.476562 C 585.648438 395.210938 587.164062 394.15625 589.316406 391.964844 C 593.199219 388.082031 594.167969 385.679688 594.210938 379.898438 C 594.210938 376.058594 594.085938 375.425781 592.902344 372.9375 C 590.457031 367.75 587.796875 366.019531 582.1875 366.019531 C 578.601562 366.0625 571.34375 367.578125 568.476562 368.929688 C 567.800781 369.265625 563.878906 370.703125 559.828125 372.136719 C 555.777344 373.570312 551.222656 375.214844 549.703125 375.804688 C 548.183594 376.398438 545.148438 377.535156 542.953125 378.335938 C 531.6875 382.386719 529.453125 383.1875 526.921875 384.074219 C 525.402344 384.625 520.59375 386.394531 516.164062 388 C 511.777344 389.601562 507.09375 391.246094 505.828125 391.625 C 504.5625 392.046875 501.441406 393.019531 498.910156 393.863281 C 496.167969 394.75 493.679688 395.296875 492.792969 395.210938 C 491.484375 395.085938 491.273438 394.917969 491.148438 393.863281 C 490.765625 390.824219 492.203125 389.980469 542.109375 365.046875 C 564.46875 353.867188 565.1875 353.363281 566.957031 348.636719 C 567.800781 346.527344 567.886719 345.515625 567.757812 341.71875 C 567.589844 336.320312 566.578125 333.828125 563.667969 331.804688 C 561.980469 330.625 561.640625 330.539062 557.804688 330.539062 C 554.007812 330.582031 550.632812 331.046875 542.53125 332.734375 C 538.777344 333.492188 529.832031 336.023438 528.734375 336.570312 C 528.3125 336.78125 526.289062 337.585938 524.179688 338.257812 C 520.804688 339.441406 511.226562 343.195312 508.992188 344.25 C 508.527344 344.460938 506.628906 345.21875 504.773438 345.980469 C 493.804688 350.324219 493.425781 350.410156 491.949219 348.425781 C 491.0625 347.246094 491.019531 346.949219 491.441406 345.390625 C 491.695312 344.417969 492.203125 342.394531 492.496094 340.875 C 492.835938 339.355469 493.59375 336.234375 494.183594 333.914062 C 494.773438 331.59375 496 326.445312 496.925781 322.523438 C 497.855469 318.558594 499.164062 313.15625 499.796875 310.5 C 500.890625 306.070312 500.976562 305.015625 500.933594 297.84375 C 500.890625 291.429688 500.722656 289.320312 500.007812 286.03125 C 498.910156 281.347656 498.867188 280 499.710938 279.28125 C 500.429688 278.691406 516.839844 278.648438 535.148438 279.28125 C 541.644531 279.492188 555.609375 279.871094 566.15625 280.167969 C 585.265625 280.671875 585.351562 280.671875 587.335938 279.828125 C 590.117188 278.5625 590.328125 277.507812 589.570312 269.664062 C 588.851562 262.785156 588.390625 259.664062 587.164062 254.179688 C 586.28125 250.046875 585.5625 248.949219 582.820312 247.515625 C 580.878906 246.5 577.546875 246.460938 560.882812 247.21875 C 551.09375 247.683594 523.632812 248.78125 512.578125 249.203125 C 507.261719 249.371094 505.742188 249.328125 504.476562 248.78125 C 501.273438 247.429688 500.679688 245.109375 501.1875 235.828125 C 501.609375 227.726562 501.90625 220.175781 502.242188 207.5625 C 502.410156 202.585938 502.789062 194.738281 503.128906 190.179688 C 503.59375 184.0625 503.632812 181.617188 503.296875 180.984375 C 502.875 180.140625 502.539062 180.140625 488.828125 180.183594 C 481.105469 180.226562 474.1875 180.394531 473.46875 180.5625 Z M 490.554688 189.507812 C 491.1875 189.800781 492.074219 190.8125 492.539062 191.742188 C 493.296875 193.261719 493.382812 194.273438 493.382812 201.234375 C 493.382812 205.539062 493.214844 215.875 492.960938 224.226562 C 492.75 232.578125 492.539062 242.578125 492.539062 246.460938 C 492.539062 254.179688 492.664062 254.601562 495.449219 256.667969 C 496.589844 257.511719 497.09375 257.554688 508.90625 257.46875 C 515.699219 257.46875 526.753906 257.21875 533.460938 256.964844 C 540.210938 256.710938 552.445312 256.457031 560.671875 256.375 C 577.378906 256.289062 577.421875 256.289062 579.191406 259.15625 C 579.953125 260.421875 580.078125 261.265625 580.078125 265.273438 C 580.078125 269.113281 579.953125 270.085938 579.320312 270.84375 L 578.558594 271.773438 L 554.089844 271.730469 C 540.675781 271.730469 525.191406 271.519531 519.75 271.265625 C 514.308594 271.054688 506.839844 270.84375 503.171875 270.84375 C 496.757812 270.84375 496.421875 270.886719 494.648438 271.898438 C 492.75 273.039062 491.484375 275.019531 491.484375 276.917969 C 491.484375 279.027344 490.515625 282.488281 489.25 284.890625 C 487.5625 288.140625 483.804688 291.429688 479.082031 293.878906 C 474.019531 296.492188 474.1875 296.832031 474.1875 285.3125 C 474.1875 271.222656 473.640625 270.589844 462.25 271.855469 C 452.039062 272.953125 443.054688 273.796875 436.21875 274.21875 C 432.632812 274.472656 427.105469 274.851562 423.984375 275.0625 C 420.863281 275.316406 415.882812 275.527344 412.929688 275.609375 C 408.121094 275.695312 407.488281 275.609375 406.433594 274.808594 C 404.410156 273.332031 403.820312 271.8125 403.777344 268.226562 C 403.734375 263.839844 404.703125 261.519531 407.195312 260.253906 C 408.796875 259.410156 409.976562 259.285156 417.234375 258.988281 C 421.75 258.820312 427.824219 258.441406 430.734375 258.230469 C 433.644531 257.976562 439.339844 257.554688 443.390625 257.34375 C 469.671875 255.78125 469.421875 255.78125 471.570312 253.84375 C 473.257812 252.28125 473.765625 249.371094 474.398438 237.726562 C 474.734375 231.695312 475.199219 224.101562 475.453125 220.851562 C 475.707031 217.601562 476.171875 209.925781 476.507812 203.765625 C 477.226562 191.699219 477.394531 190.011719 478.152344 189.546875 C 479.714844 188.535156 488.488281 188.535156 490.554688 189.507812 Z M 344.082031 267.636719 C 344.839844 268.226562 344.882812 268.859375 344.882812 279.15625 C 344.882812 285.144531 344.757812 295.058594 344.585938 301.21875 C 344.125 318.980469 345.09375 329.398438 348.046875 337.203125 C 349.820312 341.886719 355.21875 351.632812 358.46875 356.019531 C 359.226562 357.03125 359.859375 358.046875 359.859375 358.257812 C 359.859375 359.183594 363.742188 363.613281 365.089844 364.246094 C 368.886719 366.019531 372.8125 364.414062 375.257812 360.070312 C 376.734375 357.414062 379.222656 351.886719 380.53125 348.257812 C 380.953125 347.078125 381.710938 345.09375 382.21875 343.828125 C 382.726562 342.5625 384.117188 338.765625 385.382812 335.390625 C 388.671875 326.574219 389.644531 324.125 390.824219 322.144531 C 392.132812 319.90625 394.875 317.082031 396.476562 316.238281 C 398.460938 315.226562 398.882812 316.109375 398.882812 321.214844 C 398.882812 324.507812 398.628906 326.195312 397.871094 328.640625 C 397.363281 330.371094 396.140625 334.25 395.210938 337.289062 C 394.328125 340.285156 393.273438 343.617188 392.933594 344.671875 C 392.597656 345.726562 391.457031 349.3125 390.402344 352.6875 C 388.039062 360.113281 384.664062 369.859375 382.640625 375.046875 C 382.132812 376.3125 381.375 378.296875 380.953125 379.476562 C 375.847656 393.441406 365.386719 415.632812 360.660156 422.464844 C 355.554688 429.933594 349.777344 434.066406 342.4375 435.671875 C 337.246094 436.765625 326.910156 435.710938 323.113281 433.644531 C 322.691406 433.433594 321.300781 431.410156 319.949219 429.132812 C 318.640625 426.894531 316.996094 424.027344 316.238281 422.761719 C 314.421875 419.640625 313.496094 419.300781 311.21875 420.90625 C 310.246094 421.621094 308.8125 422.507812 308.054688 422.886719 C 306.789062 423.5625 306.535156 423.5625 305.691406 422.972656 C 305.140625 422.632812 304.59375 421.832031 304.46875 421.15625 C 304.085938 419.46875 300.332031 415.082031 297.296875 412.804688 C 292.992188 409.597656 285.273438 406.265625 279.703125 405.210938 C 278.902344 405.085938 274.726562 404.199219 270.421875 403.269531 C 266.117188 402.34375 261.394531 401.328125 259.875 400.992188 C 256.375 400.234375 250.046875 398.925781 245.742188 398.082031 C 236.882812 396.308594 228.488281 394.367188 226.84375 393.734375 C 225.871094 393.355469 224.269531 392.300781 223.339844 391.414062 C 221.863281 389.980469 221.609375 389.558594 221.863281 388.632812 C 222.285156 387.113281 223.339844 386.945312 229.710938 387.324219 C 247.976562 388.421875 254.304688 388.671875 266.414062 388.714844 L 279.914062 388.757812 L 282.742188 387.367188 C 284.597656 386.480469 286.03125 385.382812 286.960938 384.242188 C 288.351562 382.472656 288.351562 382.429688 288.308594 378.210938 C 288.265625 374.667969 288.097656 373.570312 287.171875 371.292969 C 286.539062 369.816406 285.484375 367.832031 284.765625 366.863281 C 284.046875 365.933594 282.277344 363.53125 280.84375 361.546875 C 277.804688 357.453125 272.023438 349.859375 271.097656 348.804688 C 269.15625 346.613281 261.308594 336.613281 255.824219 329.398438 C 250.128906 321.847656 246.121094 314.71875 246.460938 312.609375 C 246.5 312.0625 246.882812 311.46875 247.261719 311.21875 C 249.160156 310.035156 253 313.074219 257.640625 319.445312 C 259.453125 321.890625 262.828125 326.53125 265.148438 329.695312 C 277.71875 346.992188 281.898438 351.167969 292.023438 356.570312 C 294.847656 358.046875 297.675781 359.015625 299.320312 359.015625 C 301.21875 359.015625 303.371094 357.414062 304.679688 355.007812 C 306.789062 351.125 306.15625 347.414062 301.472656 336.359375 C 300.164062 333.28125 299.109375 330.539062 299.109375 330.203125 C 299.109375 329.90625 298.941406 329.484375 298.730469 329.230469 C 298.476562 329.019531 297.71875 327.375 297.042969 325.601562 C 296.324219 323.832031 295.058594 321.003906 294.257812 319.273438 C 293.457031 317.585938 292.78125 315.984375 292.78125 315.6875 C 292.78125 315.394531 292.613281 314.804688 292.402344 314.382812 C 291.21875 312.1875 284.132812 295.355469 282.402344 290.671875 C 281.304688 287.632812 281.054688 283.332031 281.855469 281.011719 C 282.234375 279.871094 282.53125 279.660156 283.457031 279.789062 C 284.722656 279.914062 286.453125 282.320312 289.617188 288.351562 C 290.714844 290.417969 291.980469 292.824219 292.402344 293.625 C 293.792969 296.28125 308.390625 326.066406 308.390625 326.277344 C 308.390625 326.40625 308.9375 327.417969 309.613281 328.554688 C 310.289062 329.695312 310.964844 331.003906 311.089844 331.507812 C 311.808594 333.703125 315.773438 340.117188 317.375 341.675781 C 319.613281 343.871094 321.300781 344.417969 324.71875 344.125 C 328.261719 343.871094 331.003906 342.226562 332.351562 339.609375 C 333.789062 336.953125 334.125 330.917969 334.082031 311.34375 C 334.039062 293.328125 334.378906 289.152344 336.742188 280.125 C 337.457031 277.46875 338.175781 274.429688 338.386719 273.375 C 338.976562 270.546875 339.652344 268.609375 340.367188 267.765625 C 341.128906 266.878906 342.941406 266.835938 344.082031 267.636719 Z M 489.289062 302.609375 C 489.5 304.382812 486.253906 308.855469 479.503906 315.984375 C 469.082031 327.078125 460.308594 336.191406 450.097656 346.570312 C 443.6875 353.066406 437.949219 358.972656 437.359375 359.691406 C 434.53125 363.066406 433.8125 368.339844 435.417969 373.613281 C 436.515625 377.199219 437.316406 378.085938 440.394531 379.222656 C 444.148438 380.574219 448.328125 380.445312 452.503906 378.800781 C 455.75 377.535156 460.011719 375.804688 461.742188 375.046875 C 462.671875 374.625 464.0625 374.035156 469.378906 371.882812 C 471.234375 371.125 474.441406 369.6875 476.550781 368.71875 C 478.617188 367.707031 481.527344 366.398438 483.046875 365.765625 C 489.796875 362.898438 491.441406 362.179688 494.226562 360.914062 C 495.871094 360.15625 499.078125 358.71875 501.398438 357.75 C 506.96875 355.429688 511.058594 353.699219 518.695312 350.453125 C 522.195312 348.976562 526.457031 347.160156 528.1875 346.445312 C 529.917969 345.726562 534.09375 343.996094 537.425781 342.5625 C 546.75 338.597656 548.945312 338.300781 553.796875 340.242188 C 557 341.507812 556.960938 343.28125 553.625 346.402344 C 551.6875 348.214844 550.589844 348.847656 540.210938 354.164062 C 535.824219 356.441406 530.675781 359.101562 528.820312 360.070312 C 523.671875 362.8125 499.457031 375.132812 490.007812 379.8125 C 466.257812 391.625 467.101562 391.078125 464.652344 395.507812 C 463.554688 397.492188 463.472656 397.996094 463.304688 404.15625 C 463.175781 409.683594 463.21875 410.820312 463.765625 411.285156 C 464.527344 411.875 470.433594 411.371094 474.863281 410.316406 C 476.253906 410.019531 479.25 409.34375 481.570312 408.796875 C 488.195312 407.363281 500.722656 403.902344 506.039062 402.089844 C 506.757812 401.835938 509.203125 400.992188 511.523438 400.234375 C 517.597656 398.164062 526.246094 395 536.625 391.078125 C 541.601562 389.179688 546.453125 387.40625 547.382812 387.070312 C 548.3125 386.773438 550.039062 386.101562 551.179688 385.59375 C 552.359375 385.085938 554.34375 384.328125 555.609375 383.90625 C 556.875 383.441406 560.417969 382.21875 563.414062 381.164062 C 576.660156 376.480469 582.0625 374.960938 583.074219 375.46875 C 584.339844 376.1875 584.929688 378.84375 584.339844 381.207031 C 583.453125 384.75 580.878906 387.492188 576.871094 389.179688 C 574.59375 390.148438 555.695312 397.152344 550.757812 398.882812 C 549.828125 399.21875 548.3125 399.769531 547.382812 400.105469 C 540.96875 402.511719 531.015625 406.179688 528.820312 406.898438 C 527.890625 407.234375 525.53125 408.078125 523.546875 408.796875 C 507.261719 414.828125 503.972656 416.011719 502.664062 416.433594 C 501.988281 416.644531 501.019531 416.980469 500.554688 417.234375 C 500.089844 417.445312 498.488281 418.035156 496.96875 418.542969 C 493.339844 419.722656 485.070312 422.804688 480.09375 424.914062 C 469.292969 429.382812 466.296875 432.464844 465.875 439.71875 C 465.664062 442.671875 465.792969 443.476562 466.507812 444.867188 C 467.394531 446.597656 468.957031 448.242188 470.8125 449.421875 C 472.203125 450.308594 476.929688 451.828125 478.363281 451.828125 C 478.953125 451.871094 480.980469 452.125 482.835938 452.460938 C 484.691406 452.839844 488.195312 453.390625 490.640625 453.726562 C 493.085938 454.0625 497.433594 454.738281 500.34375 455.203125 C 503.253906 455.710938 507.136719 456.257812 508.992188 456.46875 C 510.847656 456.722656 514.179688 457.1875 516.375 457.523438 C 520.128906 458.113281 528.777344 459.296875 536.414062 460.265625 C 538.269531 460.476562 541.6875 460.984375 544.007812 461.320312 C 546.328125 461.65625 552.109375 462.078125 556.875 462.207031 C 566.914062 462.460938 575.101562 463.386719 576.914062 464.441406 C 578.304688 465.242188 578.8125 467.058594 577.96875 468.070312 C 577.671875 468.40625 575.269531 469.335938 572.570312 470.179688 C 569.828125 471.023438 566.875 471.992188 565.945312 472.289062 C 558.859375 474.734375 544.851562 476.085938 526.078125 476.042969 C 516.078125 476.042969 512.070312 475.875 505.617188 475.117188 C 498.488281 474.3125 489.839844 472.835938 488.996094 472.289062 C 488.828125 472.203125 485.832031 471.699219 482.371094 471.148438 C 476.421875 470.222656 475.03125 470.179688 455.835938 470.222656 C 432.71875 470.304688 433.519531 470.179688 426.21875 473.976562 C 420.1875 477.140625 420.230469 477.140625 416.6875 473.851562 C 415.25 472.542969 412.929688 470.476562 411.539062 469.25 C 404.070312 462.839844 402.046875 460.730469 402.046875 459.464844 C 402.046875 457.820312 403.101562 457.058594 405.96875 456.511719 C 407.320312 456.257812 408.585938 455.960938 408.753906 455.878906 C 409.050781 455.667969 410.949219 455.246094 418.921875 453.515625 C 420.90625 453.09375 424.660156 452.25 427.316406 451.660156 C 429.933594 451.070312 434.023438 450.394531 436.429688 450.140625 C 441.789062 449.632812 443.726562 448.832031 448.328125 445.164062 C 451.914062 442.292969 452.585938 439.761719 450.816406 436.007812 C 449 432.210938 446.597656 430.101562 441.871094 428.203125 C 439.59375 427.273438 437.148438 426.429688 436.429688 426.304688 C 435.753906 426.136719 434.234375 425.796875 433.054688 425.460938 C 425.839844 423.476562 423.015625 423.140625 410.484375 422.761719 C 403.648438 422.550781 393.863281 422.464844 388.714844 422.59375 C 383.609375 422.71875 378.71875 422.71875 377.875 422.550781 C 376.015625 422.210938 375.933594 421.664062 377.113281 417.867188 C 382.554688 400.445312 391.796875 383.1875 402.46875 370.449219 C 406.601562 365.511719 414.492188 357.75 417.066406 356.019531 C 417.742188 355.597656 419.808594 353.996094 421.664062 352.476562 C 423.519531 351 426.558594 348.59375 428.414062 347.160156 C 430.269531 345.726562 432.84375 343.660156 434.109375 342.605469 C 435.375 341.507812 437.1875 340.117188 438.117188 339.441406 C 439.046875 338.765625 440.480469 337.625 441.324219 336.910156 C 442.167969 336.191406 444.824219 334.082031 447.1875 332.226562 C 451.152344 329.105469 461.996094 320.539062 467.4375 316.152344 C 475.832031 309.445312 483.132812 303.792969 484.945312 302.609375 C 487.5625 300.882812 489.078125 300.882812 489.289062 302.609375 Z M 484.566406 328.007812 C 486.378906 330.75 485.453125 342.816406 483.003906 348.722656 C 481.65625 351.96875 479.039062 355.515625 476.128906 358.085938 C 474.101562 359.859375 470.558594 361.632812 469.421875 361.460938 C 468.578125 361.335938 468.492188 361.082031 468.367188 357.539062 C 467.945312 345.304688 473.175781 333.617188 481.570312 328.050781 C 483.636719 326.699219 483.722656 326.699219 484.566406 328.007812 Z M 457.4375 352.644531 C 459.125 353.277344 459.546875 355.304688 459.085938 360.40625 C 458.492188 366.734375 456.679688 369.730469 452.757812 370.828125 C 451.027344 371.292969 447.523438 371.375 446.007812 370.996094 C 444.742188 370.617188 443.769531 368.71875 444.148438 367.328125 C 444.65625 365.511719 455.117188 352.265625 456.046875 352.265625 C 456.257812 352.265625 456.890625 352.433594 457.4375 352.644531 Z M 149.007812 371.714844 C 150.945312 372.429688 153.648438 373.613281 155.039062 374.371094 C 157.402344 375.636719 168.160156 382.175781 173.265625 385.46875 C 178.199219 388.632812 180.4375 390.023438 181.828125 390.867188 C 189.042969 395.339844 194.90625 398.925781 198.070312 400.78125 C 200.179688 402.003906 202.332031 403.3125 202.921875 403.734375 C 204.566406 404.875 212.5 407.828125 216 408.628906 C 219.332031 409.34375 223.679688 409.976562 234.773438 411.285156 C 238.484375 411.75 245.320312 412.59375 249.960938 413.226562 C 254.601562 413.816406 260.128906 414.492188 262.195312 414.746094 C 264.304688 414.957031 266.457031 415.210938 267.046875 415.335938 C 267.636719 415.460938 270.96875 415.925781 274.429688 416.390625 C 283.921875 417.65625 285.441406 417.992188 288.054688 419.300781 C 291.304688 420.945312 295.609375 424.109375 299.363281 427.65625 C 299.910156 428.160156 300.753906 428.835938 301.21875 429.171875 C 301.726562 429.511719 303.75 431.28125 305.773438 433.140625 C 310.035156 437.0625 313.875 440.523438 315.984375 442.292969 C 316.785156 443.011719 318.769531 444.867188 320.328125 446.386719 L 323.242188 449.210938 L 322.523438 450.519531 C 322.144531 451.28125 321.046875 453.136719 320.078125 454.695312 C 318.304688 457.480469 317.25 459.675781 315.351562 464.695312 C 312.988281 470.898438 312.144531 475.367188 311.890625 483.679688 C 311.679688 489.671875 311.933594 492.203125 313.539062 500.34375 C 314.804688 506.882812 314.507812 512.410156 312.441406 519.03125 C 310.964844 523.800781 307.96875 530.382812 304.59375 536.203125 C 303.707031 537.722656 299.320312 546.242188 294.765625 555.1875 C 290.25 564.132812 286.074219 572.273438 285.441406 573.328125 C 284.851562 574.382812 284.175781 575.648438 283.964844 576.15625 C 283.121094 577.96875 277.46875 587.503906 274.34375 592.269531 C 268.3125 601.425781 259.875 612.140625 258.652344 612.140625 C 258.019531 612.140625 257.511719 611 256.542969 607.121094 C 255.191406 601.761719 255.320312 598.007812 257.089844 591.046875 C 261.6875 572.90625 268.1875 558.4375 277.425781 545.820312 C 283.796875 537.089844 285.652344 530.84375 283.753906 524.179688 C 282.066406 518.1875 279.113281 514.179688 274.851562 512.15625 C 272.488281 511.015625 271.773438 510.890625 268.355469 510.890625 C 264.347656 510.890625 264.261719 510.890625 245.953125 515.363281 C 241.648438 516.417969 237.851562 517.34375 237.515625 517.386719 C 237.179688 517.472656 235.28125 518.019531 233.296875 518.609375 C 231.3125 519.203125 228.570312 519.960938 227.179688 520.296875 C 220.640625 521.945312 206.085938 525.699219 202.289062 526.710938 C 199.96875 527.34375 196.890625 528.101562 195.414062 528.398438 C 193.976562 528.734375 192.628906 529.074219 192.460938 529.199219 C 191.40625 529.832031 178.285156 531.097656 170.4375 531.351562 C 159.171875 531.648438 154.363281 532.195312 143.4375 534.261719 C 138.753906 535.191406 127.28125 537.976562 120.867188 539.789062 C 115.382812 541.351562 109.6875 542.320312 103.273438 542.742188 C 99.265625 543.039062 99.183594 543.039062 98.085938 541.941406 C 97.242188 541.097656 97.03125 540.507812 97.117188 539.492188 C 97.367188 536.75 103.695312 533.082031 112.21875 530.761719 C 114.875 530.042969 117.914062 529.199219 118.96875 528.863281 C 120.699219 528.3125 126.6875 526.542969 129.726562 525.699219 C 130.445312 525.488281 132.722656 524.8125 134.789062 524.222656 C 136.898438 523.632812 140.78125 522.535156 143.4375 521.816406 C 146.09375 521.101562 149.429688 520.128906 150.820312 519.75 C 153.648438 518.90625 159.933594 517.132812 164.109375 515.953125 C 171.703125 513.800781 173.09375 513.296875 173.980469 512.410156 C 175.375 510.847656 180.5625 501.566406 180.5625 500.597656 C 180.5625 499.964844 179.675781 499.164062 177.484375 497.769531 C 175.835938 496.714844 173.769531 495.492188 172.882812 495.113281 C 171.027344 494.269531 167.484375 494.226562 164.699219 495.027344 C 163.5625 495.367188 161.703125 495.746094 160.609375 495.914062 C 159.511719 496.039062 156.769531 496.671875 154.492188 497.265625 C 152.253906 497.855469 148.878906 498.65625 147.023438 499.078125 C 139.386719 500.808594 135.929688 501.609375 135.378906 501.777344 C 135.042969 501.90625 131.75 502.367188 128.039062 502.832031 C 120.320312 503.804688 108.167969 504.4375 88.929688 504.816406 C 76.867188 505.070312 75.347656 505.027344 73.617188 504.394531 C 72.5625 503.972656 71.339844 503.128906 70.917969 502.496094 C 70.15625 501.441406 70.117188 501.230469 70.707031 500.089844 C 72.183594 497.265625 73.871094 496.460938 80.367188 495.492188 C 82.6875 495.15625 86.863281 494.523438 89.648438 494.015625 C 92.433594 493.550781 96.988281 492.792969 99.773438 492.328125 C 102.558594 491.90625 107.199219 491.148438 110.109375 490.640625 C 113.019531 490.132812 116.902344 489.460938 118.757812 489.164062 C 124.960938 488.109375 129.683594 487.265625 132.679688 486.632812 C 140.570312 484.945312 159.300781 481.90625 165.164062 481.359375 C 178.539062 480.09375 184.90625 478.660156 186.804688 476.550781 C 187.902344 475.328125 189 472.332031 189 470.558594 C 189 465.582031 186.214844 461.53125 182.164062 460.730469 C 180.6875 460.433594 165.417969 460.222656 136.054688 460.140625 C 94.585938 460.011719 92.09375 459.929688 90.28125 459.210938 C 87.875 458.199219 85.640625 456.59375 85.640625 455.835938 C 85.640625 454.90625 88.085938 452.335938 90.027344 451.195312 C 91.96875 450.054688 93.320312 449.929688 116.859375 448.664062 C 123.230469 448.328125 129.304688 447.945312 130.359375 447.820312 C 131.414062 447.695312 137.867188 447.441406 144.703125 447.1875 C 176.640625 446.132812 185.289062 445.542969 189.464844 444.148438 C 195.917969 442 201.023438 436.429688 202.964844 429.46875 C 203.976562 425.714844 203.976562 423.941406 202.878906 420.566406 C 201.234375 415.714844 199.546875 414.070312 185.078125 403.609375 C 182.460938 401.710938 179.84375 399.769531 175.246094 396.4375 C 173.433594 395.085938 168.792969 391.710938 164.953125 388.96875 C 161.113281 386.226562 156.851562 383.105469 155.460938 382.09375 C 154.070312 381.078125 150.988281 378.84375 148.625 377.113281 C 144.15625 373.867188 142.847656 372.21875 143.859375 371.039062 C 144.578125 370.152344 145 370.238281 149.007812 371.714844 Z M 408.585938 430.734375 C 418.835938 431.664062 432.042969 433.984375 435.460938 435.5 C 436.683594 436.050781 438.03125 436.894531 438.453125 437.398438 C 439.214844 438.242188 439.214844 438.285156 438.203125 438.960938 C 437.359375 439.507812 434.953125 440.226562 428.414062 441.871094 C 427.949219 442 425.585938 442.546875 423.140625 443.136719 C 420.695312 443.726562 416.347656 444.78125 413.4375 445.5 C 410.527344 446.21875 407.109375 447.0625 405.84375 447.398438 C 402.765625 448.15625 399.050781 449.507812 395.929688 450.984375 C 390.992188 453.390625 389.179688 456.257812 390.234375 460.097656 C 390.910156 462.542969 392.722656 464.820312 398.082031 470.011719 C 411.160156 482.710938 414.40625 485.832031 417.867188 488.996094 C 419.933594 490.9375 422.382812 493.296875 423.351562 494.226562 C 424.828125 495.703125 430.015625 500.640625 445.289062 515.152344 C 447.355469 517.132812 451.195312 520.71875 453.726562 523.125 C 461.828125 530.804688 469.460938 538.609375 470.179688 540 C 471.066406 541.730469 470.558594 543.121094 468.449219 544.808594 C 464.652344 547.847656 461.445312 546.960938 454.445312 540.886719 C 453.179688 539.832031 451.53125 538.480469 450.773438 537.890625 C 450.015625 537.300781 448.199219 535.78125 446.679688 534.515625 C 445.164062 533.25 440.5625 529.367188 436.386719 525.910156 C 432.253906 522.40625 428.078125 518.90625 427.148438 518.105469 C 426.21875 517.261719 424.320312 515.617188 422.972656 514.476562 C 421.578125 513.296875 419.21875 511.269531 417.699219 509.960938 C 416.179688 508.65625 413.902344 507.007812 412.636719 506.375 C 408.207031 504.140625 402.34375 505.070312 398.757812 508.484375 C 394.074219 512.957031 393.734375 518.609375 397.742188 525.53125 C 399.9375 529.367188 415.167969 552.277344 419.640625 558.519531 C 421.199219 560.714844 422.804688 563.035156 423.140625 563.667969 C 423.476562 564.34375 425.671875 567.632812 427.992188 571.007812 C 436.429688 583.328125 440.015625 589.445312 440.015625 591.382812 C 440.015625 592.609375 438.539062 592.988281 437.316406 592.015625 C 436.429688 591.382812 432.589844 586.742188 426.09375 578.601562 C 423.476562 575.351562 415.882812 566.03125 413.480469 563.160156 C 412.171875 561.601562 410.441406 559.53125 409.640625 558.519531 C 408.839844 557.507812 407.488281 555.945312 406.644531 554.976562 C 405.84375 554.046875 404.746094 552.742188 404.242188 552.066406 C 402.59375 549.914062 396.941406 543.710938 393.398438 540.210938 C 388.925781 535.738281 386.984375 534.9375 380.488281 534.9375 C 373.613281 534.9375 371.585938 536.203125 370.617188 541.179688 C 370.070312 543.796875 370.363281 546.625 372.558594 561.472656 C 373.273438 566.242188 374.078125 572.1875 374.414062 574.636719 C 374.710938 577.082031 375.046875 579.488281 375.214844 579.910156 C 375.34375 580.332031 375.722656 582.695312 376.101562 585.140625 C 377.070312 592.058594 377.535156 595.140625 378.253906 599.695312 C 380.617188 615.429688 380.699219 616.949219 379.179688 617.457031 C 377.914062 617.835938 376.4375 616.191406 375.511719 613.238281 C 375.089844 611.804688 373.445312 604.757812 371.882812 597.585938 C 370.363281 590.371094 368.804688 583.453125 368.507812 582.1875 C 368.171875 580.921875 367.496094 578.136719 367.03125 576.070312 C 366.566406 573.960938 365.46875 568.941406 364.542969 564.890625 C 363.613281 560.839844 362.644531 556.539062 362.433594 555.398438 C 361.925781 552.824219 360.617188 547.71875 359.691406 544.851562 C 358.847656 542.152344 356.527344 539.367188 354.542969 538.734375 C 352.601562 538.058594 348.046875 538.523438 345.515625 539.621094 C 344.460938 540.085938 342.898438 541.179688 342.015625 542.023438 C 340.328125 543.628906 336.613281 549.324219 335.09375 552.65625 C 332.140625 558.984375 328.050781 572.0625 325.855469 582.1875 C 325.140625 585.476562 323.832031 588.515625 323.15625 588.515625 C 322.609375 588.515625 321.976562 585.898438 321.636719 582.1875 C 321.046875 575.3125 323.242188 564.847656 328.175781 550.84375 C 331.507812 541.390625 331.339844 535.570312 327.121094 515.53125 C 326.53125 512.875 325.8125 509.246094 325.476562 507.515625 C 325.140625 505.785156 324.378906 501.988281 323.789062 499.078125 C 322.3125 491.738281 321.171875 485.070312 320.835938 481.484375 C 320.246094 475.496094 322.945312 467.816406 327.753906 461.867188 C 331.257812 457.609375 333.617188 455.414062 342.898438 447.90625 C 349.523438 442.589844 359.226562 437.652344 369.984375 434.195312 C 380.234375 430.902344 395.382812 429.554688 408.585938 430.734375 Z M 473.386719 478.828125 C 476.675781 479.882812 480.515625 481.695312 480.515625 482.160156 C 480.515625 483.046875 477.265625 484.058594 474.230469 484.058594 C 471.359375 484.101562 471.066406 484.015625 470.304688 483.003906 C 469.039062 481.359375 469.292969 478.152344 470.644531 477.984375 C 470.6875 477.984375 471.910156 478.363281 473.386719 478.828125 Z M 473.386719 478.828125 "/><path style=" stroke:none;fill-rule:nonzero;fill:#000000;fill-opacity:1;" d="M 559.070312 528.484375 C 558.648438 528.652344 550.546875 538.015625 546.75 542.785156 C 543.921875 546.285156 535.023438 556.789062 533.039062 558.898438 C 530.84375 561.261719 530.804688 561.261719 529.664062 560.671875 C 528.988281 560.335938 527.21875 558.519531 525.699219 556.707031 C 524.179688 554.890625 521.480469 551.726562 519.75 549.703125 C 518.019531 547.679688 515.910156 545.230469 515.109375 544.21875 C 514.308594 543.207031 512.28125 540.84375 510.636719 538.945312 C 508.992188 537.046875 506.628906 534.261719 505.40625 532.785156 C 504.183594 531.308594 502.75 529.789062 502.242188 529.367188 C 501.3125 528.652344 501.230469 528.652344 500.175781 529.496094 L 499.078125 530.339844 L 499.078125 562.484375 C 499.078125 583.960938 499.246094 595.179688 499.542969 596.234375 C 499.796875 597.164062 500.597656 598.554688 501.398438 599.398438 C 502.664062 600.792969 502.875 600.875 503.84375 600.453125 C 504.476562 600.160156 505.492188 599.148438 506.125 598.175781 L 507.304688 596.363281 L 507.515625 575.480469 C 507.726562 554.597656 507.726562 554.554688 508.613281 554.429688 C 509.289062 554.34375 510.257812 555.144531 512.410156 557.632812 C 524.09375 571.007812 529.117188 576.578125 529.832031 577 C 530.550781 577.460938 530.84375 577.335938 531.859375 576.367188 C 532.914062 575.394531 541.644531 565.355469 547.59375 558.308594 C 549.027344 556.664062 549.789062 556.074219 550.671875 556.074219 L 551.8125 556.03125 L 551.8125 569.234375 C 551.8125 576.535156 551.9375 585.394531 552.109375 588.9375 L 552.359375 595.390625 L 554.089844 597.964844 C 556.367188 601.339844 557.128906 601.46875 559.363281 598.640625 C 560.292969 597.460938 561.261719 595.730469 561.515625 594.84375 C 561.8125 593.703125 561.9375 582.945312 561.851562 562.273438 C 561.726562 533.796875 561.683594 531.226562 561.007812 530 C 560.164062 528.484375 559.828125 528.230469 559.070312 528.484375 Z M 559.070312 528.484375 "/><path style=" stroke:none;fill-rule:nonzero;fill:#000000;fill-opacity:1;" d="M 667.320312 529.875 C 658.84375 531.394531 649.941406 536.667969 645.300781 542.953125 C 638.972656 551.515625 636.355469 561.769531 637.917969 572.1875 C 638.675781 577.378906 641.039062 583.578125 643.867188 587.757812 C 645.847656 590.667969 650.234375 595.179688 652.851562 597.078125 C 662.679688 604.082031 679.765625 604.925781 691.242188 598.9375 C 695.925781 596.488281 701.746094 590.667969 704.996094 585.097656 C 709.636719 577.25 711.957031 567.335938 710.394531 561.769531 C 709.890625 559.871094 707.609375 557.507812 705.542969 556.621094 C 703.308594 555.695312 683.101562 555.734375 681.074219 556.707031 C 679.429688 557.464844 677.109375 559.953125 677.109375 560.925781 C 677.109375 561.980469 679.640625 564.804688 681.074219 565.355469 C 681.875 565.648438 685.671875 565.945312 690.734375 566.070312 C 699.089844 566.242188 699.089844 566.242188 699.554688 567.253906 C 699.933594 568.097656 699.804688 568.941406 698.878906 571.765625 C 694.195312 585.648438 683.394531 594.464844 672.34375 593.367188 C 668.628906 593.03125 665.804688 592.144531 661.921875 590.203125 C 651.25 584.84375 646.015625 575.015625 647.492188 563.035156 C 648.96875 551.011719 656.859375 542.53125 668.164062 540.675781 C 672.382812 540 678.710938 540.335938 683.5625 541.433594 C 686.726562 542.152344 687.613281 541.730469 688.710938 538.902344 C 690.3125 534.683594 689.429688 532.617188 685.210938 530.886719 C 682.636719 529.875 681.835938 529.75 675.84375 529.621094 C 672.257812 529.539062 668.417969 529.664062 667.320312 529.875 Z M 667.320312 529.875 "/><path style=" stroke:none;fill-rule:nonzero;fill:#000000;fill-opacity:1;" d="M 571.597656 531.351562 C 568.054688 533.207031 567.96875 533.757812 570.839844 539.832031 C 572.820312 544.132812 573.371094 545.316406 575.984375 551.222656 C 577.039062 553.542969 578.515625 556.789062 579.234375 558.394531 C 581.765625 563.835938 582.523438 565.523438 585.140625 571.429688 C 586.574219 574.679688 588.21875 578.390625 588.851562 579.65625 C 591.890625 586.195312 592.820312 588.261719 594.675781 592.523438 C 598.09375 600.328125 599.609375 603.070312 600.707031 603.195312 C 601.890625 603.367188 603.027344 602.394531 603.703125 600.625 C 604 599.863281 604.84375 597.921875 605.644531 596.320312 C 606.402344 594.675781 607.414062 592.355469 607.878906 591.132812 C 608.386719 589.90625 609.355469 587.628906 610.074219 586.070312 C 610.789062 584.507812 611.804688 582.273438 612.351562 581.132812 C 612.859375 579.953125 614.292969 576.828125 615.515625 574.171875 C 619.226562 566.03125 620.621094 563.035156 621 562.148438 C 621.167969 561.683594 622.222656 559.449219 623.277344 557.210938 C 624.332031 554.976562 625.21875 553.035156 625.21875 552.910156 C 625.21875 552.824219 625.976562 551.09375 626.90625 549.113281 C 627.835938 547.128906 628.59375 545.316406 628.59375 545.0625 C 628.59375 544.808594 629.140625 543.5 629.859375 542.109375 C 631.589844 538.648438 631.757812 536.921875 630.578125 534.09375 C 629.4375 531.394531 628.636719 531.097656 626.1875 532.363281 C 622.8125 534.09375 621.378906 536.328125 615.601562 548.859375 C 611.929688 556.832031 609.90625 561.347656 609.1875 562.992188 C 608.511719 564.59375 607.164062 567.546875 603.027344 576.578125 C 602.183594 578.433594 601.046875 579.65625 600.203125 579.65625 C 600.117188 579.65625 599.359375 578.179688 598.515625 576.367188 C 594.085938 566.789062 593.15625 564.804688 593.15625 564.636719 C 593.15625 564.554688 592.523438 563.078125 591.722656 561.347656 C 590.921875 559.617188 589.65625 556.832031 588.9375 555.144531 C 588.179688 553.414062 587.417969 551.8125 587.25 551.601562 C 587.082031 551.347656 586.785156 550.714844 586.617188 550.125 C 586.449219 549.535156 585.605469 547.550781 584.71875 545.695312 C 583.875 543.839844 582.988281 541.855469 582.820312 541.265625 C 582.652344 540.675781 581.554688 538.355469 580.414062 536.117188 C 577.460938 530.296875 575.5625 529.285156 571.597656 531.351562 Z M 571.597656 531.351562 "/></g></svg>